<svg width="76" height="49" viewBox="0 0 76 49" fill="none" xmlns="http://www.w3.org/2000/svg">
<path d="M21.9023 43H20.54L17.6055 39.377V43H16.4336V35.8613H17.6055V39.3184L20.4863 35.8613H21.7656L18.8848 39.3086L21.9023 43ZM27.5176 40.2852C27.5176 40.7344 27.459 41.1331 27.3418 41.4814C27.2246 41.8298 27.0537 42.1243 26.8291 42.3652C26.6045 42.6029 26.3343 42.7852 26.0186 42.9121C25.7028 43.0358 25.3464 43.0977 24.9492 43.0977C24.5781 43.0977 24.238 43.0358 23.9287 42.9121C23.6195 42.7852 23.3509 42.6029 23.123 42.3652C22.8984 42.1243 22.7243 41.8298 22.6006 41.4814C22.4769 41.1331 22.415 40.7344 22.415 40.2852C22.415 39.6895 22.5176 39.1849 22.7227 38.7715C22.931 38.3548 23.2272 38.0374 23.6113 37.8193C23.9954 37.6012 24.4528 37.4922 24.9834 37.4922C25.4814 37.4922 25.9209 37.6012 26.3018 37.8193C26.6826 38.0374 26.9805 38.3548 27.1953 38.7715C27.4102 39.1882 27.5176 39.6927 27.5176 40.2852ZM23.5967 40.2852C23.5967 40.679 23.6439 41.016 23.7383 41.2959C23.8359 41.5758 23.9857 41.7907 24.1875 41.9404C24.3893 42.0869 24.6497 42.1602 24.9688 42.1602C25.2878 42.1602 25.5482 42.0869 25.75 41.9404C25.9518 41.7907 26.0999 41.5758 26.1943 41.2959C26.2887 41.016 26.3359 40.679 26.3359 40.2852C26.3359 39.8913 26.2887 39.5576 26.1943 39.2842C26.0999 39.0075 25.9518 38.7975 25.75 38.6543C25.5482 38.5078 25.2861 38.4346 24.9639 38.4346C24.4886 38.4346 24.1419 38.5941 23.9238 38.9131C23.7057 39.2321 23.5967 39.6895 23.5967 40.2852ZM31.6094 37.4922C32.2507 37.4922 32.765 37.7266 33.1523 38.1953C33.543 38.6641 33.7383 39.3607 33.7383 40.2852C33.7383 40.8971 33.6471 41.4131 33.4648 41.833C33.2858 42.2497 33.0335 42.5654 32.708 42.7803C32.3857 42.9919 32.0098 43.0977 31.5801 43.0977C31.3066 43.0977 31.069 43.0618 30.8672 42.9902C30.6654 42.9186 30.4928 42.8258 30.3496 42.7119C30.2064 42.5947 30.0859 42.4678 29.9883 42.3311H29.9199C29.9362 42.4613 29.9508 42.6061 29.9639 42.7656C29.9801 42.9219 29.9883 43.0651 29.9883 43.1953V45.3975H28.8359V37.5947H29.7734L29.9346 38.3418H29.9883C30.0892 38.1888 30.2113 38.0472 30.3545 37.917C30.501 37.7868 30.6768 37.6842 30.8818 37.6094C31.0902 37.5312 31.3327 37.4922 31.6094 37.4922ZM31.3018 38.4297C30.986 38.4297 30.7321 38.4932 30.54 38.6201C30.3512 38.7438 30.2129 38.931 30.125 39.1816C30.0404 39.4323 29.9948 39.7464 29.9883 40.124V40.2852C29.9883 40.6855 30.029 41.0257 30.1104 41.3057C30.195 41.5824 30.3333 41.7939 30.5254 41.9404C30.7207 42.0837 30.9844 42.1553 31.3164 42.1553C31.5964 42.1553 31.8275 42.0788 32.0098 41.9258C32.1953 41.7728 32.3337 41.5547 32.4248 41.2715C32.516 40.9883 32.5615 40.6546 32.5615 40.2705C32.5615 39.6878 32.4574 39.2354 32.249 38.9131C32.0439 38.5908 31.7282 38.4297 31.3018 38.4297ZM36.7461 37.4922C37.1432 37.4922 37.4997 37.5459 37.8154 37.6533C38.1344 37.7575 38.3867 37.9154 38.5723 38.127C38.7578 38.3385 38.8506 38.6022 38.8506 38.918C38.8506 39.2435 38.7562 39.5039 38.5674 39.6992C38.3818 39.8913 38.1296 40.0296 37.8105 40.1143V40.1582C38.0352 40.2135 38.2386 40.2933 38.4209 40.3975C38.6032 40.4984 38.748 40.6351 38.8555 40.8076C38.9661 40.9769 39.0215 41.195 39.0215 41.4619C39.0215 41.7646 38.932 42.0397 38.7529 42.2871C38.5771 42.5345 38.307 42.7314 37.9424 42.8779C37.5778 43.0244 37.1139 43.0977 36.5508 43.0977C36.2806 43.0977 36.0234 43.083 35.7793 43.0537C35.5384 43.0277 35.3187 42.9902 35.1201 42.9414C34.9215 42.8893 34.749 42.8275 34.6025 42.7559V41.7695C34.8271 41.877 35.099 41.9746 35.418 42.0625C35.737 42.1471 36.0788 42.1895 36.4434 42.1895C36.7135 42.1895 36.9577 42.165 37.1758 42.1162C37.3971 42.0641 37.5713 41.9795 37.6982 41.8623C37.8285 41.7451 37.8936 41.5889 37.8936 41.3936C37.8936 41.2145 37.8366 41.0664 37.7227 40.9492C37.6087 40.832 37.4378 40.7458 37.21 40.6904C36.9821 40.6318 36.694 40.6025 36.3457 40.6025H35.7012V39.7578H36.2676C36.7461 39.7578 37.1204 39.7057 37.3906 39.6016C37.6641 39.4941 37.8008 39.3086 37.8008 39.0449C37.8008 38.8236 37.7048 38.6576 37.5127 38.5469C37.3206 38.4362 37.026 38.3809 36.6289 38.3809C36.3555 38.3809 36.0853 38.4118 35.8184 38.4736C35.5514 38.5322 35.2845 38.6169 35.0176 38.7275L34.6562 37.8828C34.9525 37.7624 35.2699 37.668 35.6084 37.5996C35.9469 37.528 36.3262 37.4922 36.7461 37.4922ZM41.3652 37.5947V40.3535C41.3652 40.4414 41.362 40.5537 41.3555 40.6904C41.3522 40.8239 41.3457 40.9639 41.3359 41.1104C41.3262 41.2536 41.3164 41.3854 41.3066 41.5059C41.2969 41.6263 41.2887 41.7158 41.2822 41.7744L44.002 37.5947H45.3984V43H44.2998V40.2705C44.2998 40.1273 44.3031 39.9613 44.3096 39.7725C44.3193 39.5837 44.3291 39.4014 44.3389 39.2256C44.3519 39.0498 44.36 38.9163 44.3633 38.8252L41.6533 43H40.2617V37.5947H41.3652ZM48.2012 37.5947V39.7676H50.7305V37.5947H51.8828V43H50.7305V40.666H48.2012V43H47.0488V37.5947H48.2012ZM55.6426 37.4922C56.3262 37.4922 56.8421 37.6436 57.1904 37.9463C57.542 38.249 57.7178 38.721 57.7178 39.3623V43H56.9023L56.6826 42.2334H56.6436C56.4906 42.4287 56.3327 42.5898 56.1699 42.7168C56.0072 42.8438 55.8184 42.9382 55.6035 43C55.3919 43.0651 55.1331 43.0977 54.8271 43.0977C54.5049 43.0977 54.2168 43.0391 53.9629 42.9219C53.709 42.8014 53.5088 42.6191 53.3623 42.375C53.2158 42.1309 53.1426 41.8216 53.1426 41.4473C53.1426 40.8906 53.3493 40.4723 53.7627 40.1924C54.1794 39.9124 54.8076 39.7578 55.6475 39.7285L56.585 39.6943V39.4111C56.585 39.0368 56.4971 38.7699 56.3213 38.6104C56.1488 38.4508 55.9046 38.3711 55.5889 38.3711C55.3187 38.3711 55.0566 38.4102 54.8027 38.4883C54.5488 38.5664 54.3014 38.6624 54.0605 38.7764L53.6895 37.9658C53.9531 37.8258 54.2526 37.7119 54.5879 37.624C54.9264 37.5361 55.278 37.4922 55.6426 37.4922ZM56.5801 40.417L55.8818 40.4414C55.3089 40.4609 54.9069 40.5586 54.6758 40.7344C54.4447 40.9102 54.3291 41.151 54.3291 41.457C54.3291 41.724 54.4089 41.9193 54.5684 42.043C54.7279 42.1634 54.9378 42.2236 55.1982 42.2236C55.5954 42.2236 55.9242 42.1113 56.1846 41.8867C56.4482 41.6589 56.5801 41.3252 56.5801 40.8857V40.417Z" fill="#414951"/>
<path d="M41.5 25L41.5 25.25C41.5 25.6217 41.8013 25.9231 42.1731 25.9231V25.9231C42.5448 25.9231 42.8461 25.6217 42.8461 25.25L42.8461 25" stroke="#414951" stroke-width="1.6"/>
<path d="M35 25L35 25.25C35 25.6217 35.3013 25.9231 35.6731 25.9231V25.9231C36.0448 25.9231 36.3461 25.6217 36.3461 25.25L36.3461 25" stroke="#414951" stroke-width="1.6"/>
<path d="M26 9H29.3409L34.1136 23H44.1364L47 13.6667H34.5909" stroke="#414951" stroke-width="1.6" stroke-linecap="round" stroke-linejoin="round"/>
</svg>
