<svg width="76" height="49" viewBox="0 0 76 49" fill="none" xmlns="http://www.w3.org/2000/svg">
<path d="M23.46 43H22.0977L19.1631 39.377V43H17.9912V35.8613H19.1631V39.3184L22.0439 35.8613H23.3232L20.4424 39.3086L23.46 43ZM26.4092 37.4922C27.0928 37.4922 27.6087 37.6436 27.957 37.9463C28.3086 38.249 28.4844 38.721 28.4844 39.3623V43H27.6689L27.4492 42.2334H27.4102C27.2572 42.4287 27.0993 42.5898 26.9365 42.7168C26.7738 42.8438 26.585 42.9382 26.3701 43C26.1585 43.0651 25.8997 43.0977 25.5938 43.0977C25.2715 43.0977 24.9834 43.0391 24.7295 42.9219C24.4756 42.8014 24.2754 42.6191 24.1289 42.375C23.9824 42.1309 23.9092 41.8216 23.9092 41.4473C23.9092 40.8906 24.1159 40.4723 24.5293 40.1924C24.946 39.9124 25.5742 39.7578 26.4141 39.7285L27.3516 39.6943V39.4111C27.3516 39.0368 27.2637 38.7699 27.0879 38.6104C26.9154 38.4508 26.6712 38.3711 26.3555 38.3711C26.0853 38.3711 25.8232 38.4102 25.5693 38.4883C25.3154 38.5664 25.068 38.6624 24.8271 38.7764L24.4561 37.9658C24.7197 37.8258 25.0192 37.7119 25.3545 37.624C25.693 37.5361 26.0446 37.4922 26.4092 37.4922ZM27.3467 40.417L26.6484 40.4414C26.0755 40.4609 25.6735 40.5586 25.4424 40.7344C25.2113 40.9102 25.0957 41.151 25.0957 41.457C25.0957 41.724 25.1755 41.9193 25.335 42.043C25.4945 42.1634 25.7044 42.2236 25.9648 42.2236C26.362 42.2236 26.6908 42.1113 26.9512 41.8867C27.2148 41.6589 27.3467 41.3252 27.3467 40.8857V40.417ZM34.1729 38.498H32.3955V43H31.2529V38.498H29.4854V37.5947H34.1729V38.498ZM37.3369 37.4922C38.0205 37.4922 38.5365 37.6436 38.8848 37.9463C39.2363 38.249 39.4121 38.721 39.4121 39.3623V43H38.5967L38.377 42.2334H38.3379C38.1849 42.4287 38.027 42.5898 37.8643 42.7168C37.7015 42.8438 37.5127 42.9382 37.2979 43C37.0863 43.0651 36.8275 43.0977 36.5215 43.0977C36.1992 43.0977 35.9111 43.0391 35.6572 42.9219C35.4033 42.8014 35.2031 42.6191 35.0566 42.375C34.9102 42.1309 34.8369 41.8216 34.8369 41.4473C34.8369 40.8906 35.0436 40.4723 35.457 40.1924C35.8737 39.9124 36.502 39.7578 37.3418 39.7285L38.2793 39.6943V39.4111C38.2793 39.0368 38.1914 38.7699 38.0156 38.6104C37.8431 38.4508 37.599 38.3711 37.2832 38.3711C37.013 38.3711 36.751 38.4102 36.4971 38.4883C36.2432 38.5664 35.9958 38.6624 35.7549 38.7764L35.3838 37.9658C35.6475 37.8258 35.9469 37.7119 36.2822 37.624C36.6208 37.5361 36.9723 37.4922 37.3369 37.4922ZM38.2744 40.417L37.5762 40.4414C37.0033 40.4609 36.6012 40.5586 36.3701 40.7344C36.139 40.9102 36.0234 41.151 36.0234 41.457C36.0234 41.724 36.1032 41.9193 36.2627 42.043C36.4222 42.1634 36.6322 42.2236 36.8926 42.2236C37.2897 42.2236 37.6185 42.1113 37.8789 41.8867C38.1426 41.6589 38.2744 41.3252 38.2744 40.8857V40.417ZM45.4668 43H44.3096V38.4932H42.8105C42.7454 39.3135 42.6641 40.015 42.5664 40.5977C42.4688 41.1803 42.3467 41.6556 42.2002 42.0234C42.0537 42.388 41.873 42.6549 41.6582 42.8242C41.4434 42.9935 41.1846 43.0781 40.8818 43.0781C40.7484 43.0781 40.6279 43.0684 40.5205 43.0488C40.4131 43.0326 40.3171 43.0065 40.2324 42.9707V42.0674C40.2878 42.0869 40.348 42.1032 40.4131 42.1162C40.4782 42.1292 40.5449 42.1357 40.6133 42.1357C40.7337 42.1357 40.8444 42.0869 40.9453 41.9893C41.0495 41.8883 41.1455 41.7305 41.2334 41.5156C41.3213 41.3008 41.401 41.0176 41.4727 40.666C41.5443 40.3112 41.6094 39.8815 41.668 39.377C41.7266 38.8691 41.7786 38.2751 41.8242 37.5947H45.4668V43ZM51.8975 40.2852C51.8975 40.7344 51.8389 41.1331 51.7217 41.4814C51.6045 41.8298 51.4336 42.1243 51.209 42.3652C50.9844 42.6029 50.7142 42.7852 50.3984 42.9121C50.0827 43.0358 49.7262 43.0977 49.3291 43.0977C48.958 43.0977 48.6178 43.0358 48.3086 42.9121C47.9993 42.7852 47.7308 42.6029 47.5029 42.3652C47.2783 42.1243 47.1042 41.8298 46.9805 41.4814C46.8568 41.1331 46.7949 40.7344 46.7949 40.2852C46.7949 39.6895 46.8975 39.1849 47.1025 38.7715C47.3109 38.3548 47.6071 38.0374 47.9912 37.8193C48.3753 37.6012 48.8327 37.4922 49.3633 37.4922C49.8613 37.4922 50.3008 37.6012 50.6816 37.8193C51.0625 38.0374 51.3604 38.3548 51.5752 38.7715C51.79 39.1882 51.8975 39.6927 51.8975 40.2852ZM47.9766 40.2852C47.9766 40.679 48.0238 41.016 48.1182 41.2959C48.2158 41.5758 48.3656 41.7907 48.5674 41.9404C48.7692 42.0869 49.0296 42.1602 49.3486 42.1602C49.6676 42.1602 49.9281 42.0869 50.1299 41.9404C50.3317 41.7907 50.4798 41.5758 50.5742 41.2959C50.6686 41.016 50.7158 40.679 50.7158 40.2852C50.7158 39.8913 50.6686 39.5576 50.5742 39.2842C50.4798 39.0075 50.3317 38.7975 50.1299 38.6543C49.9281 38.5078 49.666 38.4346 49.3438 38.4346C48.8685 38.4346 48.5218 38.5941 48.3037 38.9131C48.0856 39.2321 47.9766 39.6895 47.9766 40.2852ZM56.7217 37.5947V38.498H54.3682V43H53.2158V37.5947H56.7217Z" fill="#8A8884" fill-opacity="0.56"/>
<mask id="path-2-inside-1_1403_353" fill="white">
<rect x="28" y="8" width="8" height="8" rx="1"/>
</mask>
<rect x="28" y="8" width="8" height="8" rx="1" stroke="#8A8884" stroke-opacity="0.56" stroke-width="3" stroke-linejoin="round" mask="url(#path-2-inside-1_1403_353)"/>
<mask id="path-3-inside-2_1403_353" fill="white">
<rect x="28" y="18" width="8" height="8" rx="1"/>
</mask>
<rect x="28" y="18" width="8" height="8" rx="1" stroke="#8A8884" stroke-opacity="0.56" stroke-width="3" stroke-linejoin="round" mask="url(#path-3-inside-2_1403_353)"/>
<mask id="path-4-inside-3_1403_353" fill="white">
<rect x="38" y="8" width="8" height="8" rx="1"/>
</mask>
<rect x="38" y="8" width="8" height="8" rx="1" stroke="#8A8884" stroke-opacity="0.56" stroke-width="3" stroke-linejoin="round" mask="url(#path-4-inside-3_1403_353)"/>
<mask id="path-5-inside-4_1403_353" fill="white">
<rect x="38" y="18" width="8" height="8" rx="1"/>
</mask>
<rect x="38" y="18" width="8" height="8" rx="1" stroke="#8A8884" stroke-opacity="0.56" stroke-width="3" stroke-linejoin="round" mask="url(#path-5-inside-4_1403_353)"/>
</svg>
