<svg width="74" height="49" viewBox="0 0 74 49" fill="none" xmlns="http://www.w3.org/2000/svg">
<path d="M9.41992 35.8613H10.4893V39.6455C10.4893 39.8083 10.4876 39.9873 10.4844 40.1826C10.4811 40.3779 10.4746 40.5684 10.4648 40.7539C10.4583 40.9395 10.4518 41.1055 10.4453 41.252C10.4388 41.3952 10.4323 41.4993 10.4258 41.5645H10.46L14.0928 35.8613H15.4551V43H14.3955V39.2451C14.3955 39.0693 14.3988 38.8789 14.4053 38.6738C14.4118 38.4688 14.4199 38.2702 14.4297 38.0781C14.4395 37.8861 14.4492 37.7168 14.459 37.5703C14.4688 37.4238 14.4753 37.3197 14.4785 37.2578H14.4346L10.792 43H9.41992V35.8613ZM18.8975 37.4922C19.2946 37.4922 19.651 37.5459 19.9668 37.6533C20.2858 37.7575 20.5381 37.9154 20.7236 38.127C20.9092 38.3385 21.002 38.6022 21.002 38.918C21.002 39.2435 20.9076 39.5039 20.7188 39.6992C20.5332 39.8913 20.2809 40.0296 19.9619 40.1143V40.1582C20.1865 40.2135 20.39 40.2933 20.5723 40.3975C20.7546 40.4984 20.8994 40.6351 21.0068 40.8076C21.1175 40.9769 21.1729 41.195 21.1729 41.4619C21.1729 41.7646 21.0833 42.0397 20.9043 42.2871C20.7285 42.5345 20.4583 42.7314 20.0938 42.8779C19.7292 43.0244 19.2653 43.0977 18.7021 43.0977C18.432 43.0977 18.1748 43.083 17.9307 43.0537C17.6898 43.0277 17.4701 42.9902 17.2715 42.9414C17.0729 42.8893 16.9004 42.8275 16.7539 42.7559V41.7695C16.9785 41.877 17.2503 41.9746 17.5693 42.0625C17.8883 42.1471 18.2301 42.1895 18.5947 42.1895C18.8649 42.1895 19.109 42.165 19.3271 42.1162C19.5485 42.0641 19.7227 41.9795 19.8496 41.8623C19.9798 41.7451 20.0449 41.5889 20.0449 41.3936C20.0449 41.2145 19.988 41.0664 19.874 40.9492C19.7601 40.832 19.5892 40.7458 19.3613 40.6904C19.1335 40.6318 18.8454 40.6025 18.4971 40.6025H17.8525V39.7578H18.4189C18.8975 39.7578 19.2718 39.7057 19.542 39.6016C19.8154 39.4941 19.9521 39.3086 19.9521 39.0449C19.9521 38.8236 19.8561 38.6576 19.6641 38.5469C19.472 38.4362 19.1774 38.3809 18.7803 38.3809C18.5068 38.3809 18.2367 38.4118 17.9697 38.4736C17.7028 38.5322 17.4359 38.6169 17.1689 38.7275L16.8076 37.8828C17.1038 37.7624 17.4212 37.668 17.7598 37.5996C18.0983 37.528 18.4775 37.4922 18.8975 37.4922ZM22.1055 39.7578C22.1055 38.9733 22.1917 38.306 22.3643 37.7559C22.5368 37.2057 22.8086 36.7646 23.1797 36.4326C23.5508 36.1006 24.0326 35.8743 24.625 35.7539C25.0091 35.666 25.3997 35.5911 25.7969 35.5293C26.194 35.4674 26.5911 35.4072 26.9883 35.3486L27.1445 36.3594C26.959 36.3822 26.7604 36.4098 26.5488 36.4424C26.3372 36.4717 26.124 36.5026 25.9092 36.5352C25.6976 36.5677 25.4941 36.6019 25.2988 36.6377C25.1068 36.6702 24.9342 36.7028 24.7812 36.7354C24.4753 36.8005 24.2165 36.9079 24.0049 37.0576C23.7965 37.2041 23.6338 37.4189 23.5166 37.7021C23.3994 37.9854 23.3294 38.363 23.3066 38.835H23.3701C23.458 38.7015 23.5801 38.568 23.7363 38.4346C23.8926 38.3011 24.0814 38.1904 24.3027 38.1025C24.5273 38.0114 24.7829 37.9658 25.0693 37.9658C25.5186 37.9658 25.8994 38.0602 26.2119 38.249C26.5277 38.4378 26.7669 38.7113 26.9297 39.0693C27.0957 39.4274 27.1787 39.8587 27.1787 40.3633C27.1787 40.9655 27.0713 41.4701 26.8564 41.877C26.6449 42.2806 26.3486 42.585 25.9678 42.79C25.5869 42.9951 25.1426 43.0977 24.6348 43.0977C24.2441 43.0977 23.8926 43.0244 23.5801 42.8779C23.2708 42.7314 23.0055 42.5166 22.7842 42.2334C22.5661 41.9469 22.3984 41.597 22.2812 41.1836C22.1641 40.7669 22.1055 40.2917 22.1055 39.7578ZM24.7129 42.1553C24.9733 42.1553 25.1979 42.0999 25.3867 41.9893C25.5788 41.8786 25.7269 41.6995 25.8311 41.4521C25.9385 41.2048 25.9922 40.8776 25.9922 40.4707C25.9922 39.9694 25.901 39.5755 25.7188 39.2891C25.5397 38.9993 25.2435 38.8545 24.8301 38.8545C24.5762 38.8545 24.3434 38.9115 24.1318 39.0254C23.9202 39.1393 23.7412 39.2728 23.5947 39.4258C23.4482 39.5755 23.3441 39.7074 23.2822 39.8213C23.2822 40.1175 23.3034 40.404 23.3457 40.6807C23.3913 40.9574 23.4661 41.208 23.5703 41.4326C23.6777 41.654 23.8242 41.8298 24.0098 41.96C24.1953 42.0902 24.4297 42.1553 24.7129 42.1553ZM31.2705 37.4922C31.9118 37.4922 32.4261 37.7266 32.8135 38.1953C33.2041 38.6641 33.3994 39.3607 33.3994 40.2852C33.3994 40.8971 33.3083 41.4131 33.126 41.833C32.9469 42.2497 32.6947 42.5654 32.3691 42.7803C32.0469 42.9919 31.6709 43.0977 31.2412 43.0977C30.9678 43.0977 30.7301 43.0618 30.5283 42.9902C30.3265 42.9186 30.154 42.8258 30.0107 42.7119C29.8675 42.5947 29.7471 42.4678 29.6494 42.3311H29.5811C29.5973 42.4613 29.612 42.6061 29.625 42.7656C29.6413 42.9219 29.6494 43.0651 29.6494 43.1953V45.3975H28.4971V37.5947H29.4346L29.5957 38.3418H29.6494C29.7503 38.1888 29.8724 38.0472 30.0156 37.917C30.1621 37.7868 30.3379 37.6842 30.543 37.6094C30.7513 37.5312 30.9938 37.4922 31.2705 37.4922ZM30.9629 38.4297C30.6471 38.4297 30.3932 38.4932 30.2012 38.6201C30.0124 38.7438 29.874 38.931 29.7861 39.1816C29.7015 39.4323 29.6559 39.7464 29.6494 40.124V40.2852C29.6494 40.6855 29.6901 41.0257 29.7715 41.3057C29.8561 41.5824 29.9945 41.7939 30.1865 41.9404C30.3818 42.0837 30.6455 42.1553 30.9775 42.1553C31.2575 42.1553 31.4886 42.0788 31.6709 41.9258C31.8564 41.7728 31.9948 41.5547 32.0859 41.2715C32.1771 40.9883 32.2227 40.6546 32.2227 40.2705C32.2227 39.6878 32.1185 39.2354 31.9102 38.9131C31.7051 38.5908 31.3893 38.4297 30.9629 38.4297ZM36.8467 37.4922C37.5303 37.4922 38.0462 37.6436 38.3945 37.9463C38.7461 38.249 38.9219 38.721 38.9219 39.3623V43H38.1064L37.8867 42.2334H37.8477C37.6947 42.4287 37.5368 42.5898 37.374 42.7168C37.2113 42.8438 37.0225 42.9382 36.8076 43C36.596 43.0651 36.3372 43.0977 36.0312 43.0977C35.709 43.0977 35.4209 43.0391 35.167 42.9219C34.9131 42.8014 34.7129 42.6191 34.5664 42.375C34.4199 42.1309 34.3467 41.8216 34.3467 41.4473C34.3467 40.8906 34.5534 40.4723 34.9668 40.1924C35.3835 39.9124 36.0117 39.7578 36.8516 39.7285L37.7891 39.6943V39.4111C37.7891 39.0368 37.7012 38.7699 37.5254 38.6104C37.3529 38.4508 37.1087 38.3711 36.793 38.3711C36.5228 38.3711 36.2607 38.4102 36.0068 38.4883C35.7529 38.5664 35.5055 38.6624 35.2646 38.7764L34.8936 37.9658C35.1572 37.8258 35.4567 37.7119 35.792 37.624C36.1305 37.5361 36.4821 37.4922 36.8467 37.4922ZM37.7842 40.417L37.0859 40.4414C36.513 40.4609 36.111 40.5586 35.8799 40.7344C35.6488 40.9102 35.5332 41.151 35.5332 41.457C35.5332 41.724 35.613 41.9193 35.7725 42.043C35.932 42.1634 36.1419 42.2236 36.4023 42.2236C36.7995 42.2236 37.1283 42.1113 37.3887 41.8867C37.6523 41.6589 37.7842 41.3252 37.7842 40.8857V40.417ZM41.6807 37.5947V39.7676H44.21V37.5947H45.3623V43H44.21V40.666H41.6807V43H40.5283V37.5947H41.6807ZM48.1553 37.5947V39.7676H50.6846V37.5947H51.8369V43H50.6846V40.666H48.1553V43H47.0029V37.5947H48.1553ZM58.2627 40.2852C58.2627 40.7344 58.2041 41.1331 58.0869 41.4814C57.9697 41.8298 57.7988 42.1243 57.5742 42.3652C57.3496 42.6029 57.0794 42.7852 56.7637 42.9121C56.4479 43.0358 56.0915 43.0977 55.6943 43.0977C55.3232 43.0977 54.9831 43.0358 54.6738 42.9121C54.3646 42.7852 54.096 42.6029 53.8682 42.3652C53.6436 42.1243 53.4694 41.8298 53.3457 41.4814C53.222 41.1331 53.1602 40.7344 53.1602 40.2852C53.1602 39.6895 53.2627 39.1849 53.4678 38.7715C53.6761 38.3548 53.9723 38.0374 54.3564 37.8193C54.7406 37.6012 55.1979 37.4922 55.7285 37.4922C56.2266 37.4922 56.666 37.6012 57.0469 37.8193C57.4277 38.0374 57.7256 38.3548 57.9404 38.7715C58.1553 39.1882 58.2627 39.6927 58.2627 40.2852ZM54.3418 40.2852C54.3418 40.679 54.389 41.016 54.4834 41.2959C54.5811 41.5758 54.7308 41.7907 54.9326 41.9404C55.1344 42.0869 55.3949 42.1602 55.7139 42.1602C56.0329 42.1602 56.2933 42.0869 56.4951 41.9404C56.6969 41.7907 56.8451 41.5758 56.9395 41.2959C57.0339 41.016 57.0811 40.679 57.0811 40.2852C57.0811 39.8913 57.0339 39.5576 56.9395 39.2842C56.8451 39.0075 56.6969 38.7975 56.4951 38.6543C56.2933 38.5078 56.0312 38.4346 55.709 38.4346C55.2337 38.4346 54.887 38.5941 54.6689 38.9131C54.4508 39.2321 54.3418 39.6895 54.3418 40.2852ZM61.7344 37.4922C62.2161 37.4922 62.6296 37.5915 62.9746 37.79C63.3197 37.9886 63.585 38.2702 63.7705 38.6348C63.9561 38.9993 64.0488 39.4355 64.0488 39.9434V40.5586H60.4404C60.4535 41.0827 60.5934 41.4863 60.8604 41.7695C61.1305 42.0527 61.5081 42.1943 61.9932 42.1943C62.3382 42.1943 62.6475 42.1618 62.9209 42.0967C63.1976 42.0283 63.4824 41.929 63.7754 41.7988V42.7314C63.5052 42.8584 63.2301 42.9512 62.9502 43.0098C62.6702 43.0684 62.335 43.0977 61.9443 43.0977C61.4137 43.0977 60.9466 42.9951 60.543 42.79C60.1426 42.5817 59.8285 42.2725 59.6006 41.8623C59.376 41.4521 59.2637 40.9427 59.2637 40.334C59.2637 39.7285 59.3662 39.2142 59.5713 38.791C59.7764 38.3678 60.0645 38.0456 60.4355 37.8242C60.8066 37.6029 61.2396 37.4922 61.7344 37.4922ZM61.7344 38.3564C61.373 38.3564 61.0801 38.4736 60.8555 38.708C60.6341 38.9424 60.5039 39.2858 60.4648 39.7383H62.9258C62.9225 39.4681 62.877 39.2288 62.7891 39.0205C62.7044 38.8122 62.5742 38.6494 62.3984 38.5322C62.2259 38.415 62.0046 38.3564 61.7344 38.3564Z" fill="#414951"/>
<path d="M27.4544 10.3031C25.5152 12.2539 25.5152 15.4166 27.4544 17.3674L28.9715 18.8935L35.9919 25.16L43.1207 18.9986L44.5306 17.5881C46.486 15.6321 46.4904 12.4505 44.5404 10.4889C42.6081 8.54512 39.4798 8.52958 37.5283 10.4542L36.0633 11.8991L34.4768 10.3031C32.5376 8.35233 29.3936 8.35233 27.4544 10.3031Z" stroke="#414951" stroke-width="1.6" stroke-linejoin="round"/>
</svg>
