<svg width="74" height="49" viewBox="0 0 74 49" fill="none" xmlns="http://www.w3.org/2000/svg">
<path d="M20.5361 35.8613V36.8574H17.4453V43H16.2734V35.8613H20.5361ZM26.0146 43H24.8574V38.4932H23.3584C23.2933 39.3135 23.2119 40.015 23.1143 40.5977C23.0166 41.1803 22.8945 41.6556 22.748 42.0234C22.6016 42.388 22.4209 42.6549 22.2061 42.8242C21.9912 42.9935 21.7324 43.0781 21.4297 43.0781C21.2962 43.0781 21.1758 43.0684 21.0684 43.0488C20.9609 43.0326 20.8649 43.0065 20.7803 42.9707V42.0674C20.8356 42.0869 20.8958 42.1032 20.9609 42.1162C21.026 42.1292 21.0928 42.1357 21.1611 42.1357C21.2816 42.1357 21.3923 42.0869 21.4932 41.9893C21.5973 41.8883 21.6934 41.7305 21.7812 41.5156C21.8691 41.3008 21.9489 41.0176 22.0205 40.666C22.0921 40.3112 22.1572 39.8815 22.2158 39.377C22.2744 38.8691 22.3265 38.2751 22.3721 37.5947H26.0146V43ZM29.7793 37.4922C30.4629 37.4922 30.9788 37.6436 31.3271 37.9463C31.6787 38.249 31.8545 38.721 31.8545 39.3623V43H31.0391L30.8193 42.2334H30.7803C30.6273 42.4287 30.4694 42.5898 30.3066 42.7168C30.1439 42.8438 29.9551 42.9382 29.7402 43C29.5286 43.0651 29.2699 43.0977 28.9639 43.0977C28.6416 43.0977 28.3535 43.0391 28.0996 42.9219C27.8457 42.8014 27.6455 42.6191 27.499 42.375C27.3525 42.1309 27.2793 41.8216 27.2793 41.4473C27.2793 40.8906 27.486 40.4723 27.8994 40.1924C28.3161 39.9124 28.9443 39.7578 29.7842 39.7285L30.7217 39.6943V39.4111C30.7217 39.0368 30.6338 38.7699 30.458 38.6104C30.2855 38.4508 30.0413 38.3711 29.7256 38.3711C29.4554 38.3711 29.1934 38.4102 28.9395 38.4883C28.6855 38.5664 28.4382 38.6624 28.1973 38.7764L27.8262 37.9658C28.0898 37.8258 28.3893 37.7119 28.7246 37.624C29.0632 37.5361 29.4147 37.4922 29.7793 37.4922ZM30.7168 40.417L30.0186 40.4414C29.4456 40.4609 29.0436 40.5586 28.8125 40.7344C28.5814 40.9102 28.4658 41.151 28.4658 41.457C28.4658 41.724 28.5456 41.9193 28.7051 42.043C28.8646 42.1634 29.0745 42.2236 29.335 42.2236C29.7321 42.2236 30.0609 42.1113 30.3213 41.8867C30.585 41.6589 30.7168 41.3252 30.7168 40.8857V40.417ZM38.0068 38.9814C38.0068 39.2939 37.9108 39.5495 37.7188 39.748C37.5299 39.9434 37.2695 40.0719 36.9375 40.1338V40.1729C37.2923 40.2184 37.5885 40.3438 37.8262 40.5488C38.0638 40.7539 38.1826 41.0387 38.1826 41.4033C38.1826 41.7126 38.1045 41.9876 37.9482 42.2285C37.7952 42.4661 37.5511 42.6549 37.2158 42.7949C36.8838 42.9316 36.4492 43 35.9121 43H33.4609V37.5947H35.9023C36.306 37.5947 36.6657 37.6387 36.9814 37.7266C37.3005 37.8145 37.5511 37.9593 37.7334 38.1611C37.9157 38.363 38.0068 38.6364 38.0068 38.9814ZM36.9863 41.3643C36.9863 41.0973 36.8838 40.9053 36.6787 40.7881C36.4769 40.6709 36.1807 40.6123 35.79 40.6123H34.6133V42.1553H35.8145C36.179 42.1553 36.4655 42.0951 36.6738 41.9746C36.8822 41.8509 36.9863 41.6475 36.9863 41.3643ZM36.8398 39.084C36.8398 38.8724 36.7601 38.7161 36.6006 38.6152C36.4411 38.5111 36.1904 38.459 35.8486 38.459H34.6133V39.7676H35.6924C36.07 39.7676 36.3548 39.7139 36.5469 39.6064C36.7422 39.4958 36.8398 39.3216 36.8398 39.084ZM40.6289 37.5947V39.7676H43.1582V37.5947H44.3105V43H43.1582V40.666H40.6289V43H39.4766V37.5947H40.6289ZM48.0703 37.4922C48.7539 37.4922 49.2699 37.6436 49.6182 37.9463C49.9697 38.249 50.1455 38.721 50.1455 39.3623V43H49.3301L49.1104 42.2334H49.0713C48.9183 42.4287 48.7604 42.5898 48.5977 42.7168C48.4349 42.8438 48.2461 42.9382 48.0312 43C47.8197 43.0651 47.5609 43.0977 47.2549 43.0977C46.9326 43.0977 46.6445 43.0391 46.3906 42.9219C46.1367 42.8014 45.9365 42.6191 45.79 42.375C45.6436 42.1309 45.5703 41.8216 45.5703 41.4473C45.5703 40.8906 45.777 40.4723 46.1904 40.1924C46.6071 39.9124 47.2354 39.7578 48.0752 39.7285L49.0127 39.6943V39.4111C49.0127 39.0368 48.9248 38.7699 48.749 38.6104C48.5765 38.4508 48.3324 38.3711 48.0166 38.3711C47.7464 38.3711 47.4844 38.4102 47.2305 38.4883C46.9766 38.5664 46.7292 38.6624 46.4883 38.7764L46.1172 37.9658C46.3809 37.8258 46.6803 37.7119 47.0156 37.624C47.3542 37.5361 47.7057 37.4922 48.0703 37.4922ZM49.0078 40.417L48.3096 40.4414C47.7367 40.4609 47.3346 40.5586 47.1035 40.7344C46.8724 40.9102 46.7568 41.151 46.7568 41.457C46.7568 41.724 46.8366 41.9193 46.9961 42.043C47.1556 42.1634 47.3656 42.2236 47.626 42.2236C48.0231 42.2236 48.3519 42.1113 48.6123 41.8867C48.876 41.6589 49.0078 41.3252 49.0078 40.8857V40.417ZM52.2939 43H51.0146L52.5234 40.793C52.3184 40.7279 52.1263 40.6318 51.9473 40.5049C51.7715 40.3747 51.6283 40.2054 51.5176 39.9971C51.4069 39.7855 51.3516 39.5283 51.3516 39.2256C51.3516 38.6982 51.5404 38.2946 51.918 38.0146C52.2956 37.7347 52.7887 37.5947 53.3975 37.5947H55.8486V43H54.7012V40.9102H53.6123L52.2939 43ZM52.4746 39.2354C52.4746 39.5088 52.5771 39.7171 52.7822 39.8604C52.9873 40.0003 53.2673 40.0703 53.6221 40.0703H54.7012V38.459H53.4561C53.1143 38.459 52.8652 38.5339 52.709 38.6836C52.5527 38.8301 52.4746 39.014 52.4746 39.2354Z" fill="#414951"/>
<path fill-rule="evenodd" clip-rule="evenodd" d="M36.5315 8.00206C36.2284 7.73263 35.7716 7.73263 35.4685 8.00206L25 17C24.6698 17.2935 24.6401 17.7992 24.9336 18.1294C25.2271 18.4596 25.7328 18.4894 26.063 18.1959L28 16.534V24.8C28 25.9046 28.8955 26.8 30 26.8H33.6C34.0419 26.8 34.4 26.4418 34.4 26V21.4H37.6V26C37.6 26.4418 37.9582 26.8 38.4 26.8H42C43.1046 26.8 44 25.9046 44 24.8V16.534L45.937 18.1959C46.2672 18.4894 46.7729 18.4596 47.0664 18.1294C47.36 17.7992 47.3302 17.2935 47 17L36.5315 8.00206ZM42.4452 15.2L36 9.67035L29.5548 15.2H29.6V24.8C29.6 25.0209 29.7791 25.2 30 25.2H32.8V20.6C32.8 20.1582 33.1582 19.8 33.6 19.8H38.4C38.8419 19.8 39.2 20.1582 39.2 20.6V25.2H42C42.2209 25.2 42.4 25.0209 42.4 24.8V15.2H42.4452Z" fill="#414951"/>
</svg>
