<svg width="75" height="49" viewBox="0 0 75 49" fill="none" xmlns="http://www.w3.org/2000/svg">
<path d="M15.3076 43V35.8613H20.791V43H19.6289V36.8574H16.4795V43H15.3076ZM25.3369 37.4922C25.9782 37.4922 26.4925 37.7266 26.8799 38.1953C27.2705 38.6641 27.4658 39.3607 27.4658 40.2852C27.4658 40.8971 27.3747 41.4131 27.1924 41.833C27.0133 42.2497 26.7611 42.5654 26.4355 42.7803C26.1133 42.9919 25.7373 43.0977 25.3076 43.0977C25.0342 43.0977 24.7965 43.0618 24.5947 42.9902C24.3929 42.9186 24.2204 42.8258 24.0771 42.7119C23.9339 42.5947 23.8135 42.4678 23.7158 42.3311H23.6475C23.6637 42.4613 23.6784 42.6061 23.6914 42.7656C23.7077 42.9219 23.7158 43.0651 23.7158 43.1953V45.3975H22.5635V37.5947H23.501L23.6621 38.3418H23.7158C23.8167 38.1888 23.9388 38.0472 24.082 37.917C24.2285 37.7868 24.4043 37.6842 24.6094 37.6094C24.8177 37.5312 25.0602 37.4922 25.3369 37.4922ZM25.0293 38.4297C24.7135 38.4297 24.4596 38.4932 24.2676 38.6201C24.0788 38.7438 23.9404 38.931 23.8525 39.1816C23.7679 39.4323 23.7223 39.7464 23.7158 40.124V40.2852C23.7158 40.6855 23.7565 41.0257 23.8379 41.3057C23.9225 41.5824 24.0609 41.7939 24.2529 41.9404C24.4482 42.0837 24.7119 42.1553 25.0439 42.1553C25.3239 42.1553 25.555 42.0788 25.7373 41.9258C25.9229 41.7728 26.0612 41.5547 26.1523 41.2715C26.2435 40.9883 26.2891 40.6546 26.2891 40.2705C26.2891 39.6878 26.1849 39.2354 25.9766 38.9131C25.7715 38.5908 25.4557 38.4297 25.0293 38.4297ZM33.5791 40.2852C33.5791 40.7344 33.5205 41.1331 33.4033 41.4814C33.2861 41.8298 33.1152 42.1243 32.8906 42.3652C32.666 42.6029 32.3958 42.7852 32.0801 42.9121C31.7643 43.0358 31.4079 43.0977 31.0107 43.0977C30.6396 43.0977 30.2995 43.0358 29.9902 42.9121C29.681 42.7852 29.4124 42.6029 29.1846 42.3652C28.96 42.1243 28.7858 41.8298 28.6621 41.4814C28.5384 41.1331 28.4766 40.7344 28.4766 40.2852C28.4766 39.6895 28.5791 39.1849 28.7842 38.7715C28.9925 38.3548 29.2887 38.0374 29.6729 37.8193C30.057 37.6012 30.5143 37.4922 31.0449 37.4922C31.543 37.4922 31.9824 37.6012 32.3633 37.8193C32.7441 38.0374 33.042 38.3548 33.2568 38.7715C33.4717 39.1882 33.5791 39.6927 33.5791 40.2852ZM29.6582 40.2852C29.6582 40.679 29.7054 41.016 29.7998 41.2959C29.8975 41.5758 30.0472 41.7907 30.249 41.9404C30.4508 42.0869 30.7113 42.1602 31.0303 42.1602C31.3493 42.1602 31.6097 42.0869 31.8115 41.9404C32.0133 41.7907 32.1615 41.5758 32.2559 41.2959C32.3503 41.016 32.3975 40.679 32.3975 40.2852C32.3975 39.8913 32.3503 39.5576 32.2559 39.2842C32.1615 39.0075 32.0133 38.7975 31.8115 38.6543C31.6097 38.5078 31.3477 38.4346 31.0254 38.4346C30.5501 38.4346 30.2035 38.5941 29.9854 38.9131C29.7673 39.2321 29.6582 39.6895 29.6582 40.2852ZM38.4473 35.4023V37.541C39.0267 37.5898 39.5231 37.7331 39.9365 37.9707C40.3499 38.2051 40.6673 38.5192 40.8887 38.9131C41.11 39.307 41.2207 39.7676 41.2207 40.2949C41.2207 40.8158 41.1133 41.2747 40.8984 41.6719C40.6868 42.069 40.3743 42.3864 39.9609 42.624C39.5508 42.8617 39.0462 43.0065 38.4473 43.0586V45.4023H37.3584V43.0586C36.779 43.0098 36.2826 42.8665 35.8691 42.6289C35.4557 42.3913 35.1367 42.0739 34.9121 41.6768C34.6875 41.2796 34.5752 40.819 34.5752 40.2949C34.5752 39.7643 34.681 39.3005 34.8926 38.9033C35.1042 38.5062 35.4167 38.1904 35.8301 37.9561C36.2435 37.7217 36.7578 37.5833 37.373 37.541V35.4023H38.4473ZM37.373 38.4346C37.0215 38.4736 36.7253 38.5745 36.4844 38.7373C36.2467 38.8968 36.0677 39.1084 35.9473 39.3721C35.8268 39.6357 35.7666 39.9434 35.7666 40.2949C35.7666 40.6497 35.8252 40.9606 35.9424 41.2275C36.0628 41.4912 36.2419 41.7028 36.4795 41.8623C36.7204 42.0218 37.0182 42.1211 37.373 42.1602V38.4346ZM38.4473 38.4492V42.1602C38.7988 42.1211 39.0918 42.0218 39.3262 41.8623C39.5638 41.6995 39.7412 41.4863 39.8584 41.2227C39.9788 40.9557 40.0391 40.6465 40.0391 40.2949C40.0391 39.7676 39.9023 39.3428 39.6289 39.0205C39.3587 38.6982 38.9648 38.5078 38.4473 38.4492ZM43.6475 37.5947V40.3535C43.6475 40.4414 43.6442 40.5537 43.6377 40.6904C43.6344 40.8239 43.6279 40.9639 43.6182 41.1104C43.6084 41.2536 43.5986 41.3854 43.5889 41.5059C43.5791 41.6263 43.571 41.7158 43.5645 41.7744L46.2842 37.5947H47.6807V43H46.582V40.2705C46.582 40.1273 46.5853 39.9613 46.5918 39.7725C46.6016 39.5837 46.6113 39.4014 46.6211 39.2256C46.6341 39.0498 46.6423 38.9163 46.6455 38.8252L43.9355 43H42.5439V37.5947H43.6475ZM53.7793 43H52.6221V38.4932H51.123C51.0579 39.3135 50.9766 40.015 50.8789 40.5977C50.7812 41.1803 50.6592 41.6556 50.5127 42.0234C50.3662 42.388 50.1855 42.6549 49.9707 42.8242C49.7559 42.9935 49.4971 43.0781 49.1943 43.0781C49.0609 43.0781 48.9404 43.0684 48.833 43.0488C48.7256 43.0326 48.6296 43.0065 48.5449 42.9707V42.0674C48.6003 42.0869 48.6605 42.1032 48.7256 42.1162C48.7907 42.1292 48.8574 42.1357 48.9258 42.1357C49.0462 42.1357 49.1569 42.0869 49.2578 41.9893C49.362 41.8883 49.458 41.7305 49.5459 41.5156C49.6338 41.3008 49.7135 41.0176 49.7852 40.666C49.8568 40.3112 49.9219 39.8815 49.9805 39.377C50.0391 38.8691 50.0911 38.2751 50.1367 37.5947H53.7793V43ZM56.5771 39.7529H57.9199C58.4277 39.7529 58.8477 39.8115 59.1797 39.9287C59.515 40.0426 59.7656 40.2152 59.9316 40.4463C60.0977 40.6774 60.1807 40.9671 60.1807 41.3154C60.1807 41.6572 60.1025 41.9551 59.9463 42.209C59.79 42.4596 59.5459 42.6549 59.2139 42.7949C58.8851 42.9316 58.4554 43 57.9248 43H55.4248V37.5947H56.5771V39.7529ZM59.0283 41.3447C59.0283 41.0745 58.9274 40.8841 58.7256 40.7734C58.5238 40.6595 58.2357 40.6025 57.8613 40.6025H56.5771V42.1553H57.8711C58.2129 42.1553 58.4912 42.0934 58.7061 41.9697C58.9209 41.8428 59.0283 41.6344 59.0283 41.3447Z" fill="#8A8884" fill-opacity="0.56"/>
<circle cx="37" cy="12" r="3" stroke="#8A8884" stroke-opacity="0.56" stroke-width="1.6" stroke-linecap="round"/>
<path d="M45 26C45 21.5817 41.4183 18 37 18C32.5817 18 29 21.5817 29 26" stroke="#8A8884" stroke-opacity="0.56" stroke-width="1.6" stroke-linecap="round"/>
</svg>
